<?xml version="1.0" standalone="no"?>
<!DOCTYPE svg PUBLIC "-//W3C//DTD SVG 20010904//EN"
 "http://www.w3.org/TR/2001/REC-SVG-20010904/DTD/svg10.dtd">
<svg version="1.0" xmlns="http://www.w3.org/2000/svg"
 width="7680.000000pt" height="4320.000000pt" viewBox="0 0 7680.000000 4320.000000"
 preserveAspectRatio="xMidYMid meet">

<g transform="translate(0.000000,4320.000000) scale(0.100000,-0.100000)"
fill="#000000" stroke="none">
<path d="M0 21600 l0 -21600 38400 0 38400 0 0 21600 0 21600 -38400 0 -38400
0 0 -21600z m72682 -20372 c-7 -7 -12 -8 -12 -2 0 14 12 26 19 19 2 -3 -1 -11
-7 -17z m-1625 -64 c-3 -3 -12 -4 -19 -1 -8 3 -5 6 6 6 11 1 17 -2 13 -5z
m118 -14 c3 -5 1 -10 -4 -10 -6 0 -11 5 -11 10 0 6 2 10 4 10 3 0 8 -4 11 -10z
m4217 -5 c0 -5 -5 -11 -11 -13 -6 -2 -11 4 -11 13 0 9 5 15 11 13 6 -2 11 -8
11 -13z m-4702 -1 c0 -8 -19 -13 -24 -6 -3 5 1 9 9 9 8 0 15 -2 15 -3z m5249
-18 c-2 -2 -15 -9 -29 -16 -23 -12 -24 -12 -11 3 7 10 20 17 29 17 8 0 13 -2
11 -4z m-5694 -36 c3 -5 1 -10 -4 -10 -6 0 -11 5 -11 10 0 6 2 10 4 10 3 0 8
-4 11 -10z m288 -145 c-3 -9 -8 -14 -10 -11 -3 3 -2 9 2 15 9 16 15 13 8 -4z
m-116 -50 c9 -24 -1 -27 -15 -5 -8 13 -8 20 -2 20 6 0 13 -7 17 -15z m4796
-160 c-3 -9 -8 -14 -10 -11 -3 3 -2 9 2 15 9 16 15 13 8 -4z m-2191 -43 c3 8
6 7 10 -4 5 -11 2 -15 -10 -13 -9 2 -20 4 -24 4 -5 1 -8 6 -8 12 0 8 4 8 14 0
11 -9 15 -9 18 1z m433 -52 c3 -5 1 -10 -4 -10 -6 0 -11 5 -11 10 0 6 2 10 4
10 3 0 8 -4 11 -10z m1628 -24 c-10 -13 -19 -23 -21 -21 -5 5 22 45 31 45 4 0
0 -11 -10 -24z m-4208 -16 c-3 -5 -12 -10 -18 -10 -7 0 -6 4 3 10 19 12 23 12
15 0z m-635 -4 c0 -3 -4 -8 -10 -11 -5 -3 -10 -1 -10 4 0 6 5 11 10 11 6 0 10
-2 10 -4z m2977 -42 c-3 -3 -12 -4 -19 -1 -8 3 -5 6 6 6 11 1 17 -2 13 -5z"/>
</g>
</svg>
